<svg xmlns="http://www.w3.org/2000/svg" xmlns:xlink="http://www.w3.org/1999/xlink" viewBox="0,0,256,256" width="100px" height="100px"><g fill="#ffffff" fill-rule="nonzero" stroke="none" stroke-width="1" stroke-linecap="butt" stroke-linejoin="miter" stroke-miterlimit="10" stroke-dasharray="" stroke-dashoffset="0" font-family="none" font-weight="none" font-size="none" text-anchor="none" style="mix-blend-mode: normal"><g transform="scale(5.12,5.12)"><path d="M40,2h-28c-2.75781,0 -5,2.24219 -5,5v36c0,2.75781 2.24219,5 5,5h28c2.75781,0 5,-2.24219 5,-5v-36c0,-2.75781 -2.24219,-5 -5,-5zM16.55859,40.91406v-9.94922l4.97656,4.97656zM35.26172,40.94531h-4.76562v-17.47266c0,0 1.13672,-4.18359 -14,1.71094c-0.02734,0.07422 -0.02734,-16.16016 -0.02734,-16.16016l4.94531,-0.02734v10.39844c0,0 13.84766,-5.45312 13.84766,4.13672zM33.3125,15.28906h-5.24609c1.89063,-2.30859 3.59766,-6.26562 3.59766,-6.26562h5.42578c0,0 -0.92969,2.57813 -3.77734,6.26563z"></path></g></g></svg>