<svg xmlns="http://www.w3.org/2000/svg" xmlns:xlink="http://www.w3.org/1999/xlink" viewBox="0,0,256,256" width="96px" height="96px"><g fill="#eeeeee" fill-rule="nonzero" stroke="none" stroke-width="1" stroke-linecap="butt" stroke-linejoin="miter" stroke-miterlimit="10" stroke-dasharray="" stroke-dashoffset="0" font-family="none" font-weight="none" font-size="none" text-anchor="none" style="mix-blend-mode: normal"><g transform="scale(10.66667,10.66667)"><path d="M5,3c-1.09306,0 -2,0.90694 -2,2v14c0,1.09306 0.90694,2 2,2h14c1.09306,0 2,-0.90694 2,-2v-14c0,-1.09306 -0.90694,-2 -2,-2zM5,5h14v14h-14zM12,7c-0.098,0 -0.19011,0.0233 -0.28711,0.0293c-0.339,0.043 -2.23633,0.39945 -2.23633,2.68945c0,3.341 3.45898,2.35203 3.45898,4.58203c0,1.116 -0.72214,1.14258 -0.86914,1.14258c-0.134,0 -1.01367,0.07028 -1.01367,-1.63672h-1.89062c0,2.488 1.55059,3.00395 2.18359,3.12695c0.217,0.029 0.4303,0.06641 0.6543,0.06641c0.298,0 0.58514,-0.03789 0.86914,-0.08789c0.639,-0.152 1.95508,-0.68895 1.95508,-2.62695c0,-3.206 -3.45898,-2.59159 -3.45898,-4.55859c0,-1.127 0.62186,-1.16211 0.75586,-1.16211c0.245,0 0.82813,0.21684 0.82813,1.58984h1.89063c0,-2.405 -1.49119,-2.94636 -1.99219,-3.06836c-0.278,-0.047 -0.55766,-0.08594 -0.84766,-0.08594z"></path></g></g></svg>